<svg xmlns="http://www.w3.org/2000/svg" width="500" height="150" viewBox="0 0 500 150" style="enable-background:new 0 0 500 150;version:1"><style>.a{fill:#2F664F;}</style><g transform="translate(7 6)"><path d="M169.9 4.7l-0.8 2.4c-16.5 0.5-82.4 9.5-97.8 27.4 -14.8 17.3-13.6 27.6-14.2 33.2 -0.7 6.3 8.1 4.8 10.8 3.6 9.6-4.3 15.7-15.4 37.8-4.8 11 5.3 16.9-8.5 17.9-12.3 1.8-6.8 21.2-26.8 39.4-25.3l-1.5 4.6c-8.4 1.9-25.1 9.4-30 24.4 -4.1 12.7-15.8 23.2-29.5 13.7 -10.8-7.5-25.1 0.7-27.3 1.7 -1.5 0.7-28.1 15-25.3-8.6 2.9-24.3 7.8-41.8 58.3-52.3C148 4.1 161.1 4.4 169.9 4.7" class="a"/><path d="M-1.2 135.4l13.5 0c4.4-39 18.5-90.4 61.7-84.3 14.7 2.1 16.7 5 32.5 0.2 5.6-1.7-1.3 34.2-19.4 36.6 -15.7 2.1-39.9 6.5-45.8 35.9l5.7 2.6c6.1-10.8 8.2-21.5 35.9-28.9 18.7-5 24.2-18.2 28.5-32.3 1.5-4.8 2.9-15.6-0.3-19.8 -1.3-0.7-3.7 0.9-7.8 3.3 -3.1 1.8-19.9 0.2-29.7-1.5 -18.8-3.3-45 8.6-57.6 31.8C11.7 86.7 3.2 99.5-1.2 135.4" class="a"/><path d="M91.9 12.1c2.9 0.9 19.9-6.8 19.9-6.8C56.6-20.9 6.2 31.2 15 73.6l3.4-3.8C21.2 6.1 82.4 9 91.9 12.1" class="a"/><path d="M150.1 47.2c0.4-0.1 0.5 0 1.1-0.1 14.6 39-23.1 116.2-99.1 83.3 2.7-5.8 5.4-8.9 10.3-13.7C87.6 127.2 156.4 128.2 150.1 47.2" class="a"/><polygon points="187 85.2 222.3 85.2 222.3 89.8 208.4 89.8 208.4 119.7 203.3 119.7 203.3 89.8 187 89.8 " class="a"/><path d="M233.2 119.1c-2.1-0.8-4-2-5.7-3.6 -1.7-1.7-3.1-3.7-4-5.9 -0.9-2.2-1.4-4.6-1.4-7.1 0-2.5 0.5-5 1.4-7.2 0.9-2.2 2.3-4.2 4-5.9 1.7-1.6 3.6-2.8 5.7-3.6 2.1-0.8 4.6-1.2 7.3-1.2 2.7 0 5.2 0.4 7.3 1.2 2.1 0.8 4.1 2 5.7 3.6 1.7 1.7 3.1 3.6 4 5.9 0.9 2.2 1.4 4.7 1.4 7.2 0 2.5-0.5 4.9-1.4 7.1 -0.9 2.2-2.3 4.2-4 5.9 -1.7 1.6-3.6 2.8-5.7 3.6 -2.1 0.8-4.6 1.2-7.3 1.2C237.8 120.2 235.4 119.8 233.2 119.1M249.9 92.9c-2.4-2.5-5.5-3.7-9.3-3.7 -3.9 0-7 1.2-9.4 3.7 -2.4 2.5-3.6 5.6-3.6 9.6 0 3.9 1.2 7.1 3.6 9.5 2.4 2.4 5.5 3.7 9.4 3.7 3.8 0 7-1.2 9.3-3.7 2.4-2.4 3.6-5.6 3.6-9.5C253.5 98.6 252.3 95.4 249.9 92.9" class="a"/><polygon points="264 85.2 272.1 85.2 286.1 114.5 300.2 85.2 308.3 85.2 308.3 119.7 303.4 119.7 303.4 89.4 288.8 119.7 283.3 119.7 268.9 89.4 268.9 119.7 264 119.7 " class="a"/><polygon points="315.9 119.7 321 119.7 321 85.2 315.9 85.2 " class="a"/><polygon points="328.8 85.2 333.9 85.2 333.9 115 352.8 115 352.8 119.7 328.8 119.7 " class="a"/><polygon points="358.2 85.2 363.4 85.2 363.4 115 382.3 115 382.3 119.7 358.2 119.7 " class="a"/><path d="M393.2 119.1c-2.1-0.8-4-2-5.7-3.6 -1.7-1.7-3.1-3.7-4-5.9 -0.9-2.2-1.4-4.6-1.4-7.1 0-2.5 0.5-5 1.4-7.2s2.3-4.2 4-5.9c1.7-1.6 3.6-2.8 5.7-3.6 2.1-0.8 4.6-1.2 7.3-1.2 2.7 0 5.2 0.4 7.3 1.2 2.1 0.8 4.1 2 5.7 3.6 1.7 1.7 3.1 3.6 4 5.9 0.9 2.2 1.4 4.7 1.4 7.2 0 2.5-0.5 4.9-1.4 7.1 -0.9 2.2-2.3 4.2-4 5.9 -1.7 1.6-3.6 2.8-5.7 3.6 -2.1 0.8-4.6 1.2-7.3 1.2C397.7 120.2 395.3 119.8 393.2 119.1M409.8 92.9c-2.4-2.5-5.5-3.7-9.3-3.7 -3.9 0-7 1.2-9.4 3.7 -2.4 2.5-3.7 5.6-3.7 9.6 0 3.9 1.2 7.1 3.6 9.5 2.4 2.4 5.5 3.7 9.4 3.7 3.9 0 7-1.2 9.3-3.7 2.4-2.4 3.6-5.6 3.6-9.5C413.5 98.6 412.3 95.4 409.8 92.9" class="a"/><polygon points="187 26.4 212.1 26.4 212.1 30.9 192 30.9 192 40.4 210.7 40.4 210.7 44.9 192 44.9 192 60.9 187 60.9 " class="a"/><path d="M220.6 26.4v18.2c0 2.5 0.2 4.4 0.4 5.7 0.3 1.3 0.8 2.4 1.4 3.3 0.9 1.1 2 2 3.5 2.6 1.5 0.6 3.1 1 4.9 1 1.7 0 3.3-0.3 4.8-1 1.5-0.6 2.6-1.5 3.5-2.6 0.7-0.9 1.1-1.9 1.4-3.3 0.3-1.3 0.4-3.2 0.4-5.7V26.4h5.1v20.1c0 2.4-0.2 4.3-0.5 5.7 -0.3 1.4-0.9 2.7-1.7 3.7 -1.3 1.8-3.1 3.2-5.4 4.2 -2.3 1-4.9 1.5-7.7 1.5 -2.8 0-5.4-0.5-7.7-1.5 -2.3-1-4.1-2.4-5.3-4.2 -0.8-1.1-1.3-2.4-1.7-3.8 -0.3-1.4-0.5-3.3-0.5-5.6V26.4H220.6z" class="a"/><polygon points="253 26.4 259.4 26.4 279.8 55.2 279.8 26.4 284.3 26.4 284.3 60.9 278.3 60.9 257.5 31.9 257.5 60.9 253 60.9 " class="a"/><path d="M305 56.4c3 0 5.3-0.2 6.9-0.7 1.6-0.5 2.9-1.2 4-2.3 1.2-1.2 2-2.6 2.6-4.2 0.6-1.6 0.9-3.4 0.9-5.5 0-2.2-0.3-4.1-1-5.8 -0.7-1.7-1.6-3.1-2.8-4.2 -1.2-1-2.5-1.8-4.1-2.2 -1.6-0.4-3.9-0.7-7.1-0.7h-7.3V56.4H305zM291.8 26.4h13.6c3.6 0 6.5 0.3 8.7 0.9 2.2 0.6 4.1 1.6 5.6 3 1.8 1.6 3.1 3.5 4 5.7 0.9 2.2 1.3 4.6 1.3 7.4 0 2.5-0.4 4.8-1.1 6.9 -0.7 2.1-1.8 3.9-3.3 5.5 -1.6 1.8-3.6 3.1-5.8 3.9 -2.2 0.8-5 1.2-8.5 1.2h-14.5V26.4z" class="a"/><path d="M351.9 47.4l-7.7-16.3 -8.2 16.3H351.9zM341.2 26.4h6l16.9 34.5h-5.8l-4.3-9.1h-20.2l-4.6 9.1h-5.4L341.2 26.4z" class="a"/><polygon points="404.4 60.9 409.6 60.9 409.6 26.4 404.4 26.4 " class="a"/><path d="M434.6 17h6.3l-8.3 6.8h-3.7L434.6 17zM425.8 60.3c-2.1-0.8-4-2-5.7-3.6 -1.7-1.7-3.1-3.7-4-5.9 -0.9-2.2-1.4-4.6-1.4-7.1 0-2.5 0.5-4.9 1.4-7.2s2.3-4.2 4-5.9c1.7-1.6 3.6-2.8 5.7-3.6 2.1-0.8 4.6-1.2 7.3-1.2 2.7 0 5.2 0.4 7.3 1.2 2.1 0.8 4.1 2 5.7 3.6 1.8 1.7 3.1 3.6 4 5.9 0.9 2.2 1.4 4.6 1.4 7.2 0 2.5-0.5 4.9-1.4 7.1 -0.9 2.2-2.3 4.2-4 5.9 -1.7 1.6-3.6 2.8-5.7 3.6 -2.1 0.8-4.6 1.2-7.3 1.2C430.3 61.4 427.9 61 425.8 60.3L425.8 60.3zM442.5 34.1c-2.4-2.5-5.5-3.7-9.3-3.7 -3.9 0-7 1.2-9.4 3.7 -2.4 2.5-3.6 5.6-3.6 9.6 0 3.9 1.2 7.1 3.6 9.5 2.4 2.4 5.5 3.7 9.4 3.7 3.9 0 7-1.2 9.3-3.7 2.4-2.4 3.6-5.6 3.6-9.5C446.1 39.7 444.9 36.6 442.5 34.1L442.5 34.1z" class="a"/><polygon points="457.5 26.4 463.9 26.4 484.3 55.2 484.3 26.4 488.8 26.4 488.8 60.9 482.9 60.9 462.1 31.9 462.1 60.9 457.5 60.9 " class="a"/><path d="M374.3 60.3c-2.1-0.8-4-2-5.7-3.6 -1.7-1.7-3.1-3.7-4-5.9 -0.9-2.2-1.4-4.6-1.4-7.1 0-2.5 0.5-4.9 1.4-7.2 0.9-2.2 2.3-4.2 4-5.9 1.7-1.6 3.6-2.8 5.7-3.6 2.1-0.8 4.6-1.2 7.3-1.2s5.2 0.4 7.3 1.2c2.1 0.8 4.1 2 5.7 3.6 1.8 1.7 3.1 3.6 4 5.9 0.3 0.8 0.4 1.5 0.3 2.5l-5.5 0.2c-0.7-2.1-1.2-3.7-2.5-5.1 -2.4-2.5-5.5-3.7-9.3-3.7 -3.9 0-7 1.2-9.4 3.7 -2.4 2.5-3.6 5.6-3.6 9.6 0 3.9 1.2 7.1 3.6 9.5 2.4 2.4 5.5 3.7 9.4 3.7 3.9 0 7-1.2 9.3-3.7 0.6-0.6 1.1-1.3 1.4-2.1 0.4-0.8 0.6-1.6 0.9-2.4l5.6-0.2c-0.2 1.8-0.7 3.2-0.7 3.2 -0.9 2.2-1.8 3.2-3.5 4.9 -1.7 1.6-3.6 2.8-5.7 3.6 -2.1 0.8-4.6 1.2-7.3 1.2C378.8 61.4 376.4 61 374.3 60.3" class="a"/></g></svg>